<?xml version="1.0" encoding="UTF-8"?>
<svg xmlns="http://www.w3.org/2000/svg" width="640" height="360" viewBox="0 0 640 360" fill="none">
  <defs>
    <filter id="shadow" x="0" y="0" width="640" height="360" filterUnits="userSpaceOnUse" color-interpolation-filters="sRGB">
      <feDropShadow dx="0" dy="8" stdDeviation="16" flood-color="#000000" flood-opacity="0.3"/>
    </filter>
  </defs>
  
        <rect width="640" height="360" rx="16" fill="#0B1528"/>
        <rect x="24" y="24" width="592" height="312" rx="12" fill="#172A45" stroke="#F59E0B" stroke-width="1.5" stroke-opacity="0.3"/>
        <circle cx="48" cy="48" r="5" fill="#EF4444"/>
        <circle cx="64" cy="48" r="5" fill="#F59E0B"/>
        <circle cx="80" cy="48" r="5" fill="#10B981"/>
        <text x="105" y="52" fill="#94A3B8" font-size="12" font-family="system-ui, sans-serif" font-weight="600">Fleetras · Fleet Operations &amp; Vehicle Dispatch</text>
        <rect x="490" y="38" width="110" height="22" rx="11" fill="#10B981" fill-opacity="0.2"/>
        <text x="545" y="53" fill="#10B981" font-size="11" font-family="system-ui, sans-serif" font-weight="600" text-anchor="middle">18 Vehicles Live</text>

        <!-- Left: GPS Map Simulation -->
        <g transform="translate(44, 74)">
          <rect width="300" height="240" rx="8" fill="#08101E" stroke="#253856" stroke-width="1"/>
          <!-- Map Grid Lines -->
          <line x1="0" y1="60" x2="300" y2="60" stroke="#13233A" stroke-width="1"/>
          <line x1="0" y1="120" x2="300" y2="120" stroke="#13233A" stroke-width="1"/>
          <line x1="0" y1="180" x2="300" y2="180" stroke="#13233A" stroke-width="1"/>
          <line x1="75" y1="0" x2="75" y2="240" stroke="#13233A" stroke-width="1"/>
          <line x1="150" y1="0" x2="150" y2="240" stroke="#13233A" stroke-width="1"/>
          <line x1="225" y1="0" x2="225" y2="240" stroke="#13233A" stroke-width="1"/>
          <!-- Route Path -->
          <path d="M 40 180 Q 90 120 140 130 T 250 60" fill="none" stroke="#F59E0B" stroke-width="3" stroke-dasharray="6 3"/>
          <!-- Vehicle Markers -->
          <circle cx="40" cy="180" r="7" fill="#3B82F6"/>
          <circle cx="140" cy="130" r="9" fill="#10B981"/>
          <circle cx="140" cy="130" r="14" fill="#10B981" fill-opacity="0.3"/>
          <circle cx="250" cy="60" r="7" fill="#EF4444"/>
          <!-- Vehicle Tag Tooltip -->
          <rect x="110" y="86" width="130" height="34" rx="6" fill="#1E293B" stroke="#F59E0B" stroke-width="1"/>
          <text x="120" y="101" fill="#FFFFFF" font-size="10" font-weight="bold" font-family="system-ui">TRUCK-108 · 64 km/h</text>
          <text x="120" y="114" fill="#10B981" font-size="9" font-family="system-ui">ETA Mumbai Hub: 42m</text>
        </g>

        <!-- Right: Telemetry &amp; Vehicle Cards -->
        <g transform="translate(360, 74)">
          <rect width="240" height="74" rx="8" fill="#08101E" stroke="#253856" stroke-width="1"/>
          <text x="14" y="24" fill="#94A3B8" font-size="10" font-family="system-ui">FLEET FUEL &amp; EFFICIENCY</text>
          <text x="14" y="50" fill="#F59E0B" font-size="20" font-weight="bold" font-family="system-ui">8.4 km/L</text>
          <text x="110" y="50" fill="#10B981" font-size="11" font-family="system-ui">+6.2% optimal</text>

          <rect y="84" width="240" height="74" rx="8" fill="#08101E" stroke="#253856" stroke-width="1"/>
          <text x="14" y="108" fill="#94A3B8" font-size="10" font-family="system-ui">SCHEDULED MAINTENANCE</text>
          <text x="14" y="134" fill="#38BDF8" font-size="18" font-weight="bold" font-family="system-ui">Van #04 Service</text>
          <text x="160" y="134" fill="#F59E0B" font-size="11" font-weight="bold" font-family="system-ui">Due 300km</text>

          <rect y="168" width="240" height="72" rx="8" fill="#08101E" stroke="#253856" stroke-width="1"/>
          <text x="14" y="192" fill="#94A3B8" font-size="10" font-family="system-ui">DISPATCH STATUS</text>
          <text x="14" y="216" fill="#10B981" font-size="12" font-weight="bold" font-family="system-ui">14 En Route · 3 Loading · 1 Idle</text>
          <rect x="14" y="226" width="212" height="6" rx="3" fill="#1E293B"/>
          <rect x="14" y="226" width="165" height="6" rx="3" fill="#10B981"/>
        </g>
      
</svg>
