<?xml version="1.0" encoding="UTF-8"?>
<svg xmlns="http://www.w3.org/2000/svg" width="640" height="360" viewBox="0 0 640 360" fill="none">
  <defs>
    <filter id="shadow" x="0" y="0" width="640" height="360" filterUnits="userSpaceOnUse" color-interpolation-filters="sRGB">
      <feDropShadow dx="0" dy="8" stdDeviation="16" flood-color="#000000" flood-opacity="0.3"/>
    </filter>
  </defs>
  
        <rect width="640" height="360" rx="16" fill="#1C0D12"/>
        <rect x="24" y="24" width="592" height="312" rx="12" fill="#2E151F" stroke="#F43F5E" stroke-width="1.5" stroke-opacity="0.3"/>
        <circle cx="48" cy="48" r="5" fill="#EF4444"/>
        <circle cx="64" cy="48" r="5" fill="#F59E0B"/>
        <circle cx="80" cy="48" r="5" fill="#10B981"/>
        <text x="105" y="52" fill="#FDA4AF" font-size="12" font-family="system-ui, sans-serif" font-weight="600">Tracksuit · Real-Time Brand Awareness &amp; Competitor Tracking</text>
        <rect x="490" y="38" width="110" height="22" rx="11" fill="#F43F5E" fill-opacity="0.2"/>
        <text x="545" y="53" fill="#F43F5E" font-size="11" font-family="system-ui, sans-serif" font-weight="600" text-anchor="middle">+14% YoY Growth</text>

        <!-- Left: Funnel (Awareness -> Consideration -> Preference) -->
        <g transform="translate(44, 74)">
          <rect width="280" height="240" rx="8" fill="#14080D" stroke="#4A1E2E" stroke-width="1"/>
          <text x="16" y="24" fill="#FFFFFF" font-size="11" font-weight="bold" font-family="system-ui">BRAND HEALTH FUNNEL</text>

          <g transform="translate(16, 42)">
            <rect width="248" height="48" rx="6" fill="#3D1828"/>
            <text x="12" y="20" fill="#FDA4AF" font-size="10" font-family="system-ui">Brand Awareness</text>
            <text x="12" y="38" fill="#FFFFFF" font-size="16" font-weight="bold" font-family="system-ui">64.2%</text>
            <rect x="130" y="24" width="105" height="8" rx="4" fill="#F43F5E"/>
          </g>

          <g transform="translate(16, 98)">
            <rect width="248" height="48" rx="6" fill="#3D1828"/>
            <text x="12" y="20" fill="#FDA4AF" font-size="10" font-family="system-ui">Consideration</text>
            <text x="12" y="38" fill="#FFFFFF" font-size="16" font-weight="bold" font-family="system-ui">41.8%</text>
            <rect x="130" y="24" width="70" height="8" rx="4" fill="#FB7185"/>
          </g>

          <g transform="translate(16, 154)">
            <rect width="248" height="48" rx="6" fill="#3D1828"/>
            <text x="12" y="20" fill="#FDA4AF" font-size="10" font-family="system-ui">Preference (Top Choice)</text>
            <text x="12" y="38" fill="#FFFFFF" font-size="16" font-weight="bold" font-family="system-ui">24.5%</text>
            <rect x="130" y="24" width="40" height="8" rx="4" fill="#FDA4AF"/>
          </g>
        </g>

        <!-- Right: Competitor Benchmark Graph -->
        <g transform="translate(340, 74)">
          <rect width="260" height="240" rx="8" fill="#14080D" stroke="#4A1E2E" stroke-width="1"/>
          <text x="16" y="24" fill="#FFFFFF" font-size="11" font-weight="bold" font-family="system-ui">COMPETITOR BENCHMARK</text>

          <!-- Trend line simulation -->
          <g transform="translate(16, 44)">
            <line x1="0" y1="110" x2="228" y2="110" stroke="#3D1828" stroke-width="1"/>
            <line x1="0" y1="60" x2="228" y2="60" stroke="#3D1828" stroke-width="1"/>
            <line x1="0" y1="10" x2="228" y2="10" stroke="#3D1828" stroke-width="1"/>
            
            <!-- Our Brand line -->
            <path d="M 0 90 Q 60 70 120 40 T 228 15" fill="none" stroke="#F43F5E" stroke-width="3"/>
            <!-- Competitor line -->
            <path d="M 0 50 Q 60 55 120 60 T 228 65" fill="none" stroke="#6B7280" stroke-width="2" stroke-dasharray="4 2"/>

            <text x="0" y="125" fill="#9CA3AF" font-size="9" font-family="system-ui">Q1</text>
            <text x="70" y="125" fill="#9CA3AF" font-size="9" font-family="system-ui">Q2</text>
            <text x="140" y="125" fill="#9CA3AF" font-size="9" font-family="system-ui">Q3</text>
            <text x="210" y="125" fill="#9CA3AF" font-size="9" font-family="system-ui">Q4</text>
          </g>

          <g transform="translate(16, 182)">
            <rect width="228" height="42" rx="4" fill="#2E151F"/>
            <circle cx="14" cy="21" r="5" fill="#F43F5E"/>
            <text x="26" y="24" fill="#FFFFFF" font-size="10" font-weight="bold" font-family="system-ui">Our Brand: 64% (+14 pts)</text>
            <circle cx="160" cy="21" r="5" fill="#6B7280"/>
            <text x="172" y="24" fill="#9CA3AF" font-size="10" font-family="system-ui">Comp A: 52%</text>
          </g>
        </g>
      
</svg>
